<mxfile host="app.diagrams.net" modified="2023-09-28T08:51:15.836Z" agent="5.0 (Macintosh; Intel Mac OS X 10_15_7) AppleWebKit/537.36 (KHTML, like Gecko) Chrome/116.0.0.0 Safari/537.36" etag="qBTUUjQ2sqZB7Wtgnt2q" version="20.5.3" type="github">
  <diagram id="CPEFc3Tl807OIN6h063d" name="backend">
    <mxGraphModel dx="1878" dy="592" grid="1" gridSize="10" guides="1" tooltips="1" connect="1" arrows="1" fold="1" page="1" pageScale="1" pageWidth="827" pageHeight="1169" math="0" shadow="0">
      <root>
        <mxCell id="0" />
        <mxCell id="1" parent="0" />
        <mxCell id="G97H9U6K3WA3GSwviMcT-14" style="edgeStyle=orthogonalEdgeStyle;rounded=0;orthogonalLoop=1;jettySize=auto;html=1;exitX=0;exitY=0;exitDx=0;exitDy=27.5;entryX=1;entryY=0.5;entryDx=0;entryDy=0;exitPerimeter=0;" edge="1" parent="1" source="G97H9U6K3WA3GSwviMcT-5" target="G97H9U6K3WA3GSwviMcT-1">
          <mxGeometry relative="1" as="geometry">
            <Array as="points">
              <mxPoint x="560" y="218" />
            </Array>
          </mxGeometry>
        </mxCell>
        <mxCell id="G97H9U6K3WA3GSwviMcT-35" style="edgeStyle=orthogonalEdgeStyle;rounded=0;orthogonalLoop=1;jettySize=auto;html=1;exitX=0;exitY=0.5;exitDx=0;exitDy=0;entryX=1;entryY=0.5;entryDx=0;entryDy=0;" edge="1" parent="1" source="G97H9U6K3WA3GSwviMcT-1" target="G97H9U6K3WA3GSwviMcT-16">
          <mxGeometry relative="1" as="geometry" />
        </mxCell>
        <mxCell id="G97H9U6K3WA3GSwviMcT-1" value="Order service" style="rounded=1;whiteSpace=wrap;html=1;" vertex="1" parent="1">
          <mxGeometry x="440" y="190" width="120" height="60" as="geometry" />
        </mxCell>
        <mxCell id="G97H9U6K3WA3GSwviMcT-32" style="edgeStyle=orthogonalEdgeStyle;rounded=0;orthogonalLoop=1;jettySize=auto;html=1;exitX=0;exitY=0.75;exitDx=0;exitDy=0;entryX=0.5;entryY=0;entryDx=0;entryDy=0;" edge="1" parent="1" source="G97H9U6K3WA3GSwviMcT-2" target="G97H9U6K3WA3GSwviMcT-27">
          <mxGeometry relative="1" as="geometry" />
        </mxCell>
        <mxCell id="G97H9U6K3WA3GSwviMcT-2" value="Rec service" style="rounded=1;whiteSpace=wrap;html=1;" vertex="1" parent="1">
          <mxGeometry x="440" y="120" width="120" height="60" as="geometry" />
        </mxCell>
        <mxCell id="G97H9U6K3WA3GSwviMcT-9" style="edgeStyle=orthogonalEdgeStyle;rounded=0;orthogonalLoop=1;jettySize=auto;html=1;exitX=0.5;exitY=0;exitDx=0;exitDy=0;entryX=1;entryY=0.5;entryDx=0;entryDy=0;exitPerimeter=0;" edge="1" parent="1" source="G97H9U6K3WA3GSwviMcT-5" target="G97H9U6K3WA3GSwviMcT-3">
          <mxGeometry relative="1" as="geometry" />
        </mxCell>
        <mxCell id="G97H9U6K3WA3GSwviMcT-40" style="edgeStyle=orthogonalEdgeStyle;rounded=0;orthogonalLoop=1;jettySize=auto;html=1;exitX=0;exitY=0.5;exitDx=0;exitDy=0;entryX=1;entryY=0.5;entryDx=0;entryDy=0;" edge="1" parent="1" source="G97H9U6K3WA3GSwviMcT-3" target="G97H9U6K3WA3GSwviMcT-2">
          <mxGeometry relative="1" as="geometry" />
        </mxCell>
        <mxCell id="G97H9U6K3WA3GSwviMcT-3" value="Rec Modal" style="rounded=1;whiteSpace=wrap;html=1;" vertex="1" parent="1">
          <mxGeometry x="610" y="120" width="120" height="60" as="geometry" />
        </mxCell>
        <mxCell id="G97H9U6K3WA3GSwviMcT-11" style="edgeStyle=orthogonalEdgeStyle;rounded=0;orthogonalLoop=1;jettySize=auto;html=1;exitX=0.5;exitY=1;exitDx=0;exitDy=0;entryX=1;entryY=0.5;entryDx=0;entryDy=0;exitPerimeter=0;" edge="1" parent="1" source="G97H9U6K3WA3GSwviMcT-5" target="G97H9U6K3WA3GSwviMcT-4">
          <mxGeometry relative="1" as="geometry" />
        </mxCell>
        <mxCell id="G97H9U6K3WA3GSwviMcT-36" style="edgeStyle=orthogonalEdgeStyle;rounded=0;orthogonalLoop=1;jettySize=auto;html=1;exitX=0;exitY=0.5;exitDx=0;exitDy=0;entryX=1;entryY=0.5;entryDx=0;entryDy=0;" edge="1" parent="1" source="G97H9U6K3WA3GSwviMcT-4" target="G97H9U6K3WA3GSwviMcT-16">
          <mxGeometry relative="1" as="geometry" />
        </mxCell>
        <mxCell id="G97H9U6K3WA3GSwviMcT-4" value="Customer service" style="rounded=1;whiteSpace=wrap;html=1;" vertex="1" parent="1">
          <mxGeometry x="440" y="260" width="120" height="60" as="geometry" />
        </mxCell>
        <mxCell id="G97H9U6K3WA3GSwviMcT-5" value="DB" style="shape=cylinder3;whiteSpace=wrap;html=1;boundedLbl=1;backgroundOutline=1;size=15;" vertex="1" parent="1">
          <mxGeometry x="750" y="190" width="60" height="80" as="geometry" />
        </mxCell>
        <mxCell id="G97H9U6K3WA3GSwviMcT-15" style="edgeStyle=orthogonalEdgeStyle;rounded=0;orthogonalLoop=1;jettySize=auto;html=1;exitX=1;exitY=0.5;exitDx=0;exitDy=0;entryX=1;entryY=0.5;entryDx=0;entryDy=0;" edge="1" parent="1" target="G97H9U6K3WA3GSwviMcT-6">
          <mxGeometry relative="1" as="geometry">
            <mxPoint x="780" y="190" as="sourcePoint" />
            <Array as="points">
              <mxPoint x="780" y="80" />
            </Array>
          </mxGeometry>
        </mxCell>
        <mxCell id="G97H9U6K3WA3GSwviMcT-39" style="edgeStyle=orthogonalEdgeStyle;rounded=0;orthogonalLoop=1;jettySize=auto;html=1;exitX=0;exitY=0.5;exitDx=0;exitDy=0;entryX=1;entryY=0.5;entryDx=0;entryDy=0;" edge="1" parent="1" source="G97H9U6K3WA3GSwviMcT-6" target="G97H9U6K3WA3GSwviMcT-16">
          <mxGeometry relative="1" as="geometry" />
        </mxCell>
        <mxCell id="G97H9U6K3WA3GSwviMcT-6" value="Auth service" style="rounded=1;whiteSpace=wrap;html=1;" vertex="1" parent="1">
          <mxGeometry x="440" y="50" width="120" height="60" as="geometry" />
        </mxCell>
        <mxCell id="G97H9U6K3WA3GSwviMcT-13" style="edgeStyle=orthogonalEdgeStyle;rounded=0;orthogonalLoop=1;jettySize=auto;html=1;exitX=0.5;exitY=1;exitDx=0;exitDy=0;entryX=1;entryY=0.5;entryDx=0;entryDy=0;exitPerimeter=0;" edge="1" parent="1" source="G97H9U6K3WA3GSwviMcT-5" target="G97H9U6K3WA3GSwviMcT-7">
          <mxGeometry relative="1" as="geometry">
            <mxPoint x="770" y="280" as="sourcePoint" />
          </mxGeometry>
        </mxCell>
        <mxCell id="G97H9U6K3WA3GSwviMcT-37" style="edgeStyle=orthogonalEdgeStyle;rounded=0;orthogonalLoop=1;jettySize=auto;html=1;exitX=0;exitY=0.5;exitDx=0;exitDy=0;entryX=1;entryY=0.5;entryDx=0;entryDy=0;" edge="1" parent="1" source="G97H9U6K3WA3GSwviMcT-7" target="G97H9U6K3WA3GSwviMcT-16">
          <mxGeometry relative="1" as="geometry" />
        </mxCell>
        <mxCell id="G97H9U6K3WA3GSwviMcT-7" value="Payment service" style="rounded=1;whiteSpace=wrap;html=1;" vertex="1" parent="1">
          <mxGeometry x="440" y="330" width="120" height="60" as="geometry" />
        </mxCell>
        <mxCell id="G97H9U6K3WA3GSwviMcT-33" style="edgeStyle=orthogonalEdgeStyle;rounded=0;orthogonalLoop=1;jettySize=auto;html=1;exitX=0;exitY=0.5;exitDx=0;exitDy=0;entryX=1;entryY=0.5;entryDx=0;entryDy=0;" edge="1" parent="1" source="G97H9U6K3WA3GSwviMcT-16" target="G97H9U6K3WA3GSwviMcT-22">
          <mxGeometry relative="1" as="geometry" />
        </mxCell>
        <mxCell id="G97H9U6K3WA3GSwviMcT-16" value="API gateway" style="rhombus;whiteSpace=wrap;html=1;" vertex="1" parent="1">
          <mxGeometry x="180" y="180" width="80" height="80" as="geometry" />
        </mxCell>
        <mxCell id="G97H9U6K3WA3GSwviMcT-22" value="App" style="rounded=1;whiteSpace=wrap;html=1;" vertex="1" parent="1">
          <mxGeometry x="-80" y="190" width="200" height="60" as="geometry" />
        </mxCell>
        <mxCell id="G97H9U6K3WA3GSwviMcT-25" style="edgeStyle=orthogonalEdgeStyle;rounded=0;orthogonalLoop=1;jettySize=auto;html=1;entryX=1;entryY=0.5;entryDx=0;entryDy=0;" edge="1" parent="1" source="G97H9U6K3WA3GSwviMcT-5" target="G97H9U6K3WA3GSwviMcT-24">
          <mxGeometry relative="1" as="geometry">
            <Array as="points">
              <mxPoint x="780" y="440" />
            </Array>
          </mxGeometry>
        </mxCell>
        <mxCell id="G97H9U6K3WA3GSwviMcT-31" style="edgeStyle=orthogonalEdgeStyle;rounded=0;orthogonalLoop=1;jettySize=auto;html=1;exitX=0;exitY=0.5;exitDx=0;exitDy=0;entryX=1;entryY=0.5;entryDx=0;entryDy=0;" edge="1" parent="1" source="G97H9U6K3WA3GSwviMcT-24" target="G97H9U6K3WA3GSwviMcT-27">
          <mxGeometry relative="1" as="geometry" />
        </mxCell>
        <mxCell id="G97H9U6K3WA3GSwviMcT-24" value="Promotional Content&amp;nbsp;&lt;br&gt;service&lt;br&gt;" style="rounded=1;whiteSpace=wrap;html=1;" vertex="1" parent="1">
          <mxGeometry x="440" y="410" width="120" height="60" as="geometry" />
        </mxCell>
        <mxCell id="G97H9U6K3WA3GSwviMcT-34" style="edgeStyle=orthogonalEdgeStyle;rounded=0;orthogonalLoop=1;jettySize=auto;html=1;exitX=0;exitY=0.5;exitDx=0;exitDy=0;entryX=0.5;entryY=1;entryDx=0;entryDy=0;" edge="1" parent="1" source="G97H9U6K3WA3GSwviMcT-27" target="G97H9U6K3WA3GSwviMcT-16">
          <mxGeometry relative="1" as="geometry" />
        </mxCell>
        <mxCell id="G97H9U6K3WA3GSwviMcT-27" value="Feed Mixer" style="rhombus;whiteSpace=wrap;html=1;" vertex="1" parent="1">
          <mxGeometry x="270" y="400" width="80" height="80" as="geometry" />
        </mxCell>
        <mxCell id="G97H9U6K3WA3GSwviMcT-41" value="Product Service" style="rounded=1;whiteSpace=wrap;html=1;" vertex="1" parent="1">
          <mxGeometry x="440" y="490" width="120" height="60" as="geometry" />
        </mxCell>
      </root>
    </mxGraphModel>
  </diagram>
</mxfile>
